<svg width="755" height="264" viewBox="0 0 755 264" fill="none" xmlns="http://www.w3.org/2000/svg">
<path d="M9 164.887H253V254L9 164.887Z" fill="#0B2E54"/>
<path d="M253 254L9 254V164.887L253 254Z" fill="#104378"/>
<rect x="9" y="146.852" width="244" height="10.6087" fill="#429374"/>
<path fill-rule="evenodd" clip-rule="evenodd" d="M253 10H9V138.365L13.2361 138.365C13.2361 114.168 25.6434 90.9623 47.7284 73.8525C69.8134 56.7426 99.7671 47.1304 131 47.1304C162.233 47.1304 192.187 56.7426 214.272 73.8525C236.357 90.9623 248.764 114.168 248.764 138.365L253 138.365V10Z" fill="#65D2A7"/>
<path fill-rule="evenodd" clip-rule="evenodd" d="M183.528 68.2714C179.617 66.6252 175.564 65.1566 171.391 63.8764C169.248 63.2189 167.079 62.6131 164.889 62.0596V138.365H183.528V68.2714ZM193.694 138.365H213.181V86.5871C211.132 84.7763 208.974 83.03 206.711 81.354C202.661 78.3548 198.307 75.604 193.694 73.1235V138.365ZM238.597 138.365H222.5V96.1724C225.496 99.7853 228.109 103.576 230.31 107.511C235.781 117.293 238.597 127.777 238.597 138.365ZM154.722 59.8925C148.332 58.7762 141.81 58.0889 135.236 57.8423V138.365H154.722V59.8925Z" fill="#429374"/>
<path fill-rule="evenodd" clip-rule="evenodd" d="M78.4723 68.1682C82.3829 66.5219 86.4356 65.0534 90.6089 63.7732C92.7525 63.1156 94.921 62.5099 97.1111 61.9564V138.262H78.4723V68.1682ZM68.3056 138.262H48.8195V86.4839C50.868 84.6731 53.0264 82.9268 55.2895 81.2508C59.3392 78.2516 63.6926 75.5008 68.3056 73.0203V138.262ZM23.4028 138.262H39.5001V96.0692C36.5042 99.682 33.8909 103.473 31.6899 107.408C26.2188 117.19 23.4028 127.674 23.4028 138.262ZM107.278 59.7893C113.668 58.673 120.19 57.9857 126.764 57.7391V138.262H107.278V59.7893Z" fill="#429374"/>
<path d="M320.223 159V116.578H337.742C347.234 116.578 352.156 120.914 352.156 127.359C352.156 132.223 348.875 135.562 344.246 136.5V136.91C349.344 137.145 353.797 141.012 353.797 147.164C353.797 154.02 348.465 159 339.09 159H320.223ZM336.746 150.914C341.316 150.914 343.367 149.098 343.367 146.051C343.367 142.711 340.906 140.602 336.922 140.602H330.184V150.914H336.746ZM336.102 134.098C339.5 134.098 341.961 132.281 341.961 129.234C341.961 126.363 339.793 124.547 336.219 124.547H330.184V134.098H336.102ZM363.519 159V116.578H380.862C390.413 116.578 396.273 121.969 396.273 130.641C396.273 136.471 393.607 140.66 388.948 142.77L397.796 159H386.839L379.046 144.41H373.48V159H363.519ZM373.48 136.441H378.753C383.441 136.441 385.96 134.625 385.96 130.641C385.96 126.656 383.441 124.664 378.753 124.664H373.48V136.441ZM416.659 116.578V159H406.698V116.578H416.659ZM443.431 159H427.904V116.578H443.431C456.38 116.578 464.349 124.547 464.349 137.789C464.349 151.031 456.38 159 443.431 159ZM437.865 150.445H443.08C450.345 150.445 454.33 146.988 454.33 137.789C454.33 128.59 450.345 125.074 442.963 125.074H437.865V150.445ZM502.958 130.406C501.962 126.832 499.091 124.781 494.93 124.781C488.72 124.781 484.735 129.469 484.735 137.73C484.735 146.051 488.485 150.797 494.93 150.797C500.585 150.797 503.778 147.838 503.895 143.238H495.341V135.914H513.505V141.48C513.505 152.789 505.712 159.586 494.872 159.586C482.743 159.586 474.54 151.266 474.54 137.848C474.54 123.961 483.446 115.992 494.696 115.992C504.481 115.992 512.04 121.969 513.095 130.406H502.958ZM524.34 159V116.578H553.695V124.723H534.301V133.688H552.172V141.832H534.301V150.855H553.754V159H524.34ZM589.726 159V166.266H561.542V159H589.726ZM614.799 116.578H624.643V145.934C624.643 154.195 618.491 159.586 609.526 159.586C601.674 159.586 595.346 155.543 595.405 146.52H605.366C605.483 149.859 607.241 151.676 610.112 151.676C613.1 151.676 614.799 149.742 614.799 145.934V116.578ZM675.673 137.789C675.673 151.793 666.884 159.586 655.517 159.586C644.091 159.586 635.361 151.734 635.361 137.789C635.361 123.785 644.091 115.992 655.517 115.992C666.884 115.992 675.673 123.785 675.673 137.789ZM665.478 137.789C665.478 129.352 661.728 124.781 655.517 124.781C649.306 124.781 645.556 129.352 645.556 137.789C645.556 146.227 649.306 150.797 655.517 150.797C661.728 150.797 665.478 146.227 665.478 137.789ZM686.391 159V116.578H703.911C713.403 116.578 718.325 120.914 718.325 127.359C718.325 132.223 715.044 135.562 710.415 136.5V136.91C715.513 137.145 719.966 141.012 719.966 147.164C719.966 154.02 714.634 159 705.259 159H686.391ZM702.915 150.914C707.485 150.914 709.536 149.098 709.536 146.051C709.536 142.711 707.075 140.602 703.091 140.602H696.352V150.914H702.915ZM702.27 134.098C705.669 134.098 708.13 132.281 708.13 129.234C708.13 126.363 705.962 124.547 702.388 124.547H696.352V134.098H702.27Z" fill="#429374"/>
</svg>
