<svg width="260" height="303" viewBox="0 0 260 303" fill="none" xmlns="http://www.w3.org/2000/svg">
<path d="M8 205.887H252V295L8 205.887Z" fill="#0B2E54"/>
<path d="M252 295L8 295V205.887L252 295Z" fill="#104378"/>
<rect x="8" y="187.852" width="244" height="10.6087" fill="#429374"/>
<path fill-rule="evenodd" clip-rule="evenodd" d="M252 51H8V179.365L12.2361 179.365C12.2361 155.168 24.6434 131.962 46.7284 114.852C68.8134 97.7426 98.7671 88.1304 130 88.1304C161.233 88.1304 191.187 97.7426 213.272 114.852C235.357 131.962 247.764 155.168 247.764 179.365L252 179.365V51Z" fill="#65D2A7"/>
<path fill-rule="evenodd" clip-rule="evenodd" d="M182.528 109.271C178.617 107.625 174.564 106.157 170.391 104.876C168.248 104.219 166.079 103.613 163.889 103.06V179.365H182.528V109.271ZM192.694 179.365H212.181V127.587C210.132 125.776 207.974 124.03 205.711 122.354C201.661 119.355 197.307 116.604 192.694 114.123V179.365ZM237.597 179.365H221.5V137.172C224.496 140.785 227.109 144.576 229.31 148.511C234.781 158.293 237.597 168.777 237.597 179.365ZM153.722 100.893C147.332 99.7762 140.81 99.0889 134.236 98.8423V179.365H153.722V100.893Z" fill="#429374"/>
<path fill-rule="evenodd" clip-rule="evenodd" d="M77.4723 109.168C81.3829 107.522 85.4357 106.053 89.6089 104.773C91.7525 104.116 93.9211 103.51 96.1112 102.956V179.262H77.4723V109.168ZM67.3056 179.262H47.8195V127.484C49.868 125.673 52.0264 123.927 54.2896 122.251C58.3393 119.252 62.6927 116.501 67.3056 114.02V179.262ZM22.4028 179.262H38.5001V137.069C35.5042 140.682 32.8909 144.473 30.6899 148.408C25.2188 158.19 22.4028 168.674 22.4028 179.262ZM106.278 100.789C112.668 99.673 119.19 98.9857 125.764 98.7391V179.262H106.278V100.789Z" fill="#429374"/>
<path d="M13.9336 34V8.54688H24.4453C30.1406 8.54688 33.0938 11.1484 33.0938 15.0156C33.0938 17.9336 31.125 19.9375 28.3477 20.5V20.7461C31.4062 20.8867 34.0781 23.207 34.0781 26.8984C34.0781 31.0117 30.8789 34 25.2539 34H13.9336ZM23.8477 29.1484C26.5898 29.1484 27.8203 28.0586 27.8203 26.2305C27.8203 24.2266 26.3438 22.9609 23.9531 22.9609H19.9102V29.1484H23.8477ZM23.4609 19.0586C25.5 19.0586 26.9766 17.9688 26.9766 16.1406C26.9766 14.418 25.6758 13.3281 23.5312 13.3281H19.9102V19.0586H23.4609ZM39.9113 34V8.54688H50.3175C56.048 8.54688 59.5636 11.7812 59.5636 16.9844C59.5636 20.4824 57.964 22.9961 55.1691 24.2617L60.4777 34H53.9034L49.2277 25.2461H45.8878V34H39.9113ZM45.8878 20.4648H49.0519C51.8644 20.4648 53.3761 19.375 53.3761 16.9844C53.3761 14.5938 51.8644 13.3984 49.0519 13.3984H45.8878V20.4648ZM71.7952 8.54688V34H65.8186V8.54688H71.7952ZM87.8587 34H78.5423V8.54688H87.8587C95.6283 8.54688 100.41 13.3281 100.41 21.2734C100.41 29.2188 95.6283 34 87.8587 34ZM84.5189 28.8672H87.6478C92.0072 28.8672 94.3978 26.793 94.3978 21.2734C94.3978 15.7539 92.0072 13.6445 87.5775 13.6445H84.5189V28.8672ZM123.575 16.8438C122.977 14.6992 121.254 13.4688 118.758 13.4688C115.032 13.4688 112.641 16.2812 112.641 21.2383C112.641 26.2305 114.891 29.0781 118.758 29.0781C122.151 29.0781 124.067 27.3027 124.137 24.543H119.004V20.1484H129.903V23.4883C129.903 30.2734 125.227 34.3516 118.723 34.3516C111.446 34.3516 106.524 29.3594 106.524 21.3086C106.524 12.9766 111.868 8.19531 118.618 8.19531C124.489 8.19531 129.024 11.7812 129.657 16.8438H123.575ZM136.404 34V8.54688H154.017V13.4336H142.38V18.8125H153.103V23.6992H142.38V29.1133H154.052V34H136.404ZM175.635 34V38.3594H158.725V34H175.635ZM190.68 8.54688H196.586V26.1602C196.586 31.1172 192.894 34.3516 187.515 34.3516C182.805 34.3516 179.008 31.9258 179.043 26.5117H185.019C185.09 28.5156 186.144 29.6055 187.867 29.6055C189.66 29.6055 190.68 28.4453 190.68 26.1602V8.54688ZM227.204 21.2734C227.204 29.6758 221.931 34.3516 215.11 34.3516C208.255 34.3516 203.017 29.6406 203.017 21.2734C203.017 12.8711 208.255 8.19531 215.11 8.19531C221.931 8.19531 227.204 12.8711 227.204 21.2734ZM221.087 21.2734C221.087 16.2109 218.837 13.4688 215.11 13.4688C211.384 13.4688 209.134 16.2109 209.134 21.2734C209.134 26.3359 211.384 29.0781 215.11 29.0781C218.837 29.0781 221.087 26.3359 221.087 21.2734ZM233.635 34V8.54688H244.147C249.842 8.54688 252.795 11.1484 252.795 15.0156C252.795 17.9336 250.826 19.9375 248.049 20.5V20.7461C251.107 20.8867 253.779 23.207 253.779 26.8984C253.779 31.0117 250.58 34 244.955 34H233.635ZM243.549 29.1484C246.291 29.1484 247.522 28.0586 247.522 26.2305C247.522 24.2266 246.045 22.9609 243.654 22.9609H239.611V29.1484H243.549ZM243.162 19.0586C245.201 19.0586 246.678 17.9688 246.678 16.1406C246.678 14.418 245.377 13.3281 243.232 13.3281H239.611V19.0586H243.162Z" fill="#429374"/>
</svg>
