<svg width="300" height="300" viewBox="0 0 300 300" fill="none" xmlns="http://www.w3.org/2000/svg">
<path d="M13.748 285V255.305H25.1094C31.5488 255.305 34.748 258.586 34.748 263.016C34.748 266.625 32.4512 268.635 29.5391 269.332V269.619C32.6973 269.783 35.8965 272.408 35.8965 276.92C35.8965 281.555 32.5742 285 25.7656 285H13.748ZM24.9453 280.529C28.8418 280.529 30.4824 278.848 30.4824 276.51C30.4824 273.844 28.3906 271.793 25.0684 271.793H19.0801V280.529H24.9453ZM24.4531 267.938C27.2832 267.938 29.416 266.297 29.416 263.672C29.416 261.375 27.7754 259.734 24.5762 259.734H19.0801V267.938H24.4531ZM43.6041 285V255.305H54.7604C61.569 255.305 65.2194 259.119 65.2194 264.779C65.2194 268.819 63.3737 271.813 59.8873 273.229L66.2858 285H60.3385L54.5143 274.131H48.9362V285H43.6041ZM48.9362 269.66H53.9401C57.9596 269.66 59.7643 267.938 59.7643 264.779C59.7643 261.621 57.9596 259.775 53.9401 259.775H48.9362V269.66ZM78.5052 255.305V285H73.1731V255.305H78.5052ZM97.4921 285H87.4023V255.305H97.6562C106.516 255.305 111.889 260.883 111.889 270.111C111.889 279.381 106.516 285 97.4921 285ZM92.7343 280.365H97.205C103.398 280.365 106.557 276.961 106.557 270.111C106.557 263.303 103.398 259.939 97.3691 259.939H92.7343V280.365ZM139.858 264.779C138.915 261.621 136.454 259.693 132.844 259.693C128.045 259.693 124.6 263.426 124.6 270.111C124.6 276.879 128.004 280.611 132.967 280.611C137.438 280.611 140.309 277.904 140.391 273.68H133.501V269.455H145.559V273.023C145.559 280.652 140.309 285.41 132.967 285.41C124.764 285.41 119.227 279.586 119.227 270.152C119.227 260.637 125.01 254.895 132.803 254.895C139.366 254.895 144.411 258.955 145.313 264.779H139.858ZM153.759 285V255.305H173.077V259.775H159.091V267.896H172.052V272.367H159.091V280.488H173.159V285H153.759ZM197.765 285V289.184H178.57V285H197.765ZM215.358 255.305H220.649V276.182C220.649 281.924 216.793 285.41 211.092 285.41C205.883 285.41 201.905 282.58 201.905 277.125H207.237C207.237 279.545 208.877 281.021 211.297 281.021C213.881 281.021 215.317 279.34 215.358 276.182V255.305ZM256.001 270.152C256.001 279.75 250.177 285.41 242.384 285.41C234.591 285.41 228.767 279.709 228.767 270.152C228.767 260.555 234.591 254.895 242.384 254.895C250.177 254.895 256.001 260.555 256.001 270.152ZM250.628 270.152C250.628 263.385 247.224 259.693 242.384 259.693C237.544 259.693 234.14 263.385 234.14 270.152C234.14 276.92 237.544 280.611 242.384 280.611C247.224 280.611 250.628 276.92 250.628 270.152ZM264.119 285V255.305H275.48C281.92 255.305 285.119 258.586 285.119 263.016C285.119 266.625 282.822 268.635 279.91 269.332V269.619C283.068 269.783 286.267 272.408 286.267 276.92C286.267 281.555 282.945 285 276.136 285H264.119ZM275.316 280.529C279.213 280.529 280.853 278.848 280.853 276.51C280.853 273.844 278.761 271.793 275.439 271.793H269.451V280.529H275.316ZM274.824 267.938C277.654 267.938 279.787 266.297 279.787 263.672C279.787 261.375 278.146 259.734 274.947 259.734H269.451V267.938H274.824Z" fill="#429374"/>
<path d="M6 154H294V238L6 154Z" fill="#0B2E54"/>
<path d="M294 238L6 238V154L294 238Z" fill="#104378"/>
<rect x="6" y="137" width="288" height="10" fill="#429374"/>
<path fill-rule="evenodd" clip-rule="evenodd" d="M294 8H6V129H150L11 129C11 106.191 25.6446 84.3169 51.7122 68.1888C77.7797 52.0607 113.135 43 150 43C186.865 43 222.22 52.0607 248.288 68.1888C274.355 84.3169 289 106.191 289 129H294V8Z" fill="#65D2A7"/>
<path fill-rule="evenodd" clip-rule="evenodd" d="M212 62.9279C207.384 61.3762 202.601 59.9919 197.675 58.7852C195.145 58.1653 192.585 57.5943 190 57.0726V129H212V62.9279ZM224 129H247V80.1928C244.582 78.4859 242.034 76.8398 239.363 75.2599C234.583 72.4328 229.445 69.8399 224 67.5016V129ZM277 129H258V89.2282C261.536 92.6337 264.621 96.2067 267.219 99.9161C273.676 109.137 277 119.02 277 129ZM178 55.0298C170.457 53.9776 162.759 53.3297 155 53.0973V129H178V55.0298Z" fill="#429374"/>
<path fill-rule="evenodd" clip-rule="evenodd" d="M88.0001 62.8306C92.6159 61.2789 97.3995 59.8946 102.325 58.6879C104.855 58.068 107.415 57.497 110 56.9753V128.903H88.0001V62.8306ZM76.0001 128.903H53.0001V80.0955C55.418 78.3885 57.9656 76.7425 60.6368 75.1626C65.4168 72.3355 70.5552 69.7426 76.0001 67.4043V128.903ZM23 128.903H42.0001V89.1308C38.464 92.5363 35.3794 96.1094 32.7815 99.8188C26.3238 109.04 23 118.922 23 128.903ZM122 54.9325C129.543 53.8803 137.241 53.2324 145 53V128.903H122V54.9325Z" fill="#429374"/>
</svg>
