<svg width="244" height="244" viewBox="0 0 244 244" fill="none" xmlns="http://www.w3.org/2000/svg">
<g clip-path="url(#clip0_18_23)">
<rect width="244" height="244" rx="20" fill="white"/>
<path d="M0 154.887H244V244L0 154.887Z" fill="#0B2E54"/>
<path d="M244 244L3.8147e-06 244V154.887L244 244Z" fill="#104378"/>
<rect y="136.852" width="244" height="10.6087" fill="#429374"/>
<path fill-rule="evenodd" clip-rule="evenodd" d="M244 0H0V128.365L4.23612 128.365C4.23612 104.168 16.6434 80.9623 38.7284 63.8525C60.8134 46.7426 90.7671 37.1304 122 37.1304C153.233 37.1304 183.187 46.7426 205.272 63.8525C227.357 80.9623 239.764 104.168 239.764 128.365L244 128.365V0Z" fill="#65D2A7"/>
<path fill-rule="evenodd" clip-rule="evenodd" d="M174.528 58.2714C170.617 56.6252 166.564 55.1566 162.391 53.8764C160.248 53.2189 158.079 52.6131 155.889 52.0596V128.365H174.528V58.2714ZM184.694 128.365H204.181V76.5871C202.132 74.7763 199.974 73.03 197.711 71.354C193.661 68.3548 189.307 65.604 184.694 63.1235V128.365ZM229.597 128.365H213.5V86.1724C216.496 89.7853 219.109 93.5758 221.31 97.511C226.781 107.293 229.597 117.777 229.597 128.365ZM145.722 49.8925C139.332 48.7762 132.81 48.0889 126.236 47.8423V128.365H145.722V49.8925Z" fill="#429374"/>
<path fill-rule="evenodd" clip-rule="evenodd" d="M69.4723 58.1682C73.3829 56.5219 77.4357 55.0534 81.6089 53.7732C83.7525 53.1156 85.9211 52.5099 88.1112 51.9564V128.262H69.4723V58.1682ZM59.3056 128.262H39.8195V76.4839C41.868 74.6731 44.0264 72.9268 46.2896 71.2508C50.3393 68.2516 54.6927 65.5008 59.3056 63.0203V128.262ZM14.4028 128.262H30.5001V86.0692C27.5042 89.682 24.8909 93.4726 22.6899 97.4077C17.2188 107.19 14.4028 117.674 14.4028 128.262ZM98.2778 49.7893C104.668 48.673 111.19 47.9857 117.764 47.7391V128.262H98.2778V49.7893Z" fill="#429374"/>
</g>
<defs>
<clipPath id="clip0_18_23">
<rect width="244" height="244" rx="20" fill="white"/>
</clipPath>
</defs>
</svg>
