<svg width="1111" height="244" viewBox="0 0 1111 244" fill="none" xmlns="http://www.w3.org/2000/svg">
<g clip-path="url(#clip0_18_25)">
<path d="M307.445 164V79.1562H342.484C361.469 79.1562 371.312 87.8281 371.312 100.719C371.312 110.445 364.75 117.125 355.492 119V119.82C365.688 120.289 374.594 128.023 374.594 140.328C374.594 154.039 363.93 164 345.18 164H307.445ZM340.492 147.828C349.633 147.828 353.734 144.195 353.734 138.102C353.734 131.422 348.812 127.203 340.844 127.203H327.367V147.828H340.492ZM339.203 114.195C346 114.195 350.922 110.562 350.922 104.469C350.922 98.7266 346.586 95.0938 339.438 95.0938H327.367V114.195H339.203ZM394.037 164V79.1562H428.725C447.827 79.1562 459.545 89.9375 459.545 107.281C459.545 118.941 454.213 127.32 444.897 131.539L462.592 164H440.678L425.092 134.82H413.959V164H394.037ZM413.959 118.883H424.506C433.881 118.883 438.92 115.25 438.92 107.281C438.92 99.3125 433.881 95.3281 424.506 95.3281H413.959V118.883ZM500.317 79.1562V164H480.395V79.1562H500.317ZM553.863 164H522.808V79.1562H553.863C579.761 79.1562 595.698 95.0938 595.698 121.578C595.698 148.062 579.761 164 553.863 164ZM542.73 146.891H553.159C567.691 146.891 575.659 139.977 575.659 121.578C575.659 103.18 567.691 96.1484 552.925 96.1484H542.73V146.891ZM672.916 106.812C670.923 99.6641 665.181 95.5625 656.861 95.5625C644.439 95.5625 636.47 104.938 636.47 121.461C636.47 138.102 643.97 147.594 656.861 147.594C668.17 147.594 674.556 141.676 674.791 132.477H657.681V117.828H694.009V128.961C694.009 151.578 678.423 165.172 656.744 165.172C632.486 165.172 616.08 148.531 616.08 121.695C616.08 93.9219 633.892 77.9844 656.392 77.9844C675.962 77.9844 691.08 89.9375 693.189 106.812H672.916ZM715.68 164V79.1562H774.391V95.4453H735.602V113.375H771.344V129.664H735.602V147.711H774.508V164H715.68ZM846.452 164V178.531H790.084V164H846.452ZM896.598 79.1562H916.286V137.867C916.286 154.391 903.981 165.172 886.052 165.172C870.348 165.172 857.692 157.086 857.809 139.039H877.731C877.966 145.719 881.481 149.352 887.223 149.352C893.2 149.352 896.598 145.484 896.598 137.867V79.1562ZM1018.35 121.578C1018.35 149.586 1000.77 165.172 978.034 165.172C955.183 165.172 937.722 149.469 937.722 121.578C937.722 93.5703 955.183 77.9844 978.034 77.9844C1000.77 77.9844 1018.35 93.5703 1018.35 121.578ZM997.956 121.578C997.956 104.703 990.456 95.5625 978.034 95.5625C965.612 95.5625 958.112 104.703 958.112 121.578C958.112 138.453 965.612 147.594 978.034 147.594C990.456 147.594 997.956 138.453 997.956 121.578ZM1039.78 164V79.1562H1074.82C1093.81 79.1562 1103.65 87.8281 1103.65 100.719C1103.65 110.445 1097.09 117.125 1087.83 119V119.82C1098.03 120.289 1106.93 128.023 1106.93 140.328C1106.93 154.039 1096.27 164 1077.52 164H1039.78ZM1072.83 147.828C1081.97 147.828 1086.07 144.195 1086.07 138.102C1086.07 131.422 1081.15 127.203 1073.18 127.203H1059.7V147.828H1072.83ZM1071.54 114.195C1078.34 114.195 1083.26 110.562 1083.26 104.469C1083.26 98.7266 1078.92 95.0938 1071.78 95.0938H1059.7V114.195H1071.54Z" fill="#429374"/>
<g clip-path="url(#clip1_18_25)">
<rect width="244" height="244" rx="20" fill="white"/>
<path d="M0 154.887H244V244L0 154.887Z" fill="#0B2E54"/>
<path d="M244 244L3.8147e-06 244V154.887L244 244Z" fill="#104378"/>
<rect y="136.852" width="244" height="10.6087" fill="#429374"/>
<path fill-rule="evenodd" clip-rule="evenodd" d="M244 0H0V128.365L4.23612 128.365C4.23612 104.168 16.6434 80.9623 38.7284 63.8525C60.8134 46.7426 90.7671 37.1304 122 37.1304C153.233 37.1304 183.187 46.7426 205.272 63.8525C227.357 80.9623 239.764 104.168 239.764 128.365L244 128.365V0Z" fill="#65D2A7"/>
<path fill-rule="evenodd" clip-rule="evenodd" d="M174.528 58.2714C170.617 56.6252 166.564 55.1566 162.391 53.8764C160.248 53.2189 158.079 52.6131 155.889 52.0596V128.365H174.528V58.2714ZM184.694 128.365H204.181V76.5871C202.132 74.7763 199.974 73.03 197.711 71.354C193.661 68.3548 189.307 65.604 184.694 63.1235V128.365ZM229.597 128.365H213.5V86.1724C216.496 89.7853 219.109 93.5758 221.31 97.511C226.781 107.293 229.597 117.777 229.597 128.365ZM145.722 49.8925C139.332 48.7762 132.81 48.0889 126.236 47.8423V128.365H145.722V49.8925Z" fill="#429374"/>
<path fill-rule="evenodd" clip-rule="evenodd" d="M69.4723 58.1682C73.3829 56.5219 77.4357 55.0534 81.6089 53.7732C83.7525 53.1156 85.9211 52.5099 88.1112 51.9564V128.262H69.4723V58.1682ZM59.3056 128.262H39.8195V76.4839C41.868 74.6731 44.0264 72.9268 46.2896 71.2508C50.3393 68.2516 54.6927 65.5008 59.3056 63.0203V128.262ZM14.4028 128.262H30.5001V86.0692C27.5042 89.682 24.8909 93.4726 22.6899 97.4077C17.2188 107.19 14.4028 117.674 14.4028 128.262ZM98.2778 49.7893C104.668 48.673 111.19 47.9857 117.764 47.7391V128.262H98.2778V49.7893Z" fill="#429374"/>
</g>
</g>
<defs>
<clipPath id="clip0_18_25">
<rect width="1111" height="244" fill="white"/>
</clipPath>
<clipPath id="clip1_18_25">
<rect width="244" height="244" rx="20" fill="white"/>
</clipPath>
</defs>
</svg>
